#define Help_width 32
#define Help_height 32
static unsigned char Help_bits[] = {
   0x00, 0x10, 0x00, 0x00, 0x80, 0x00, 0x00, 0x00, 0x00, 0x40, 0x3e, 0x00,
   0x00, 0xc0, 0x80, 0x01, 0x2a, 0x02, 0x00, 0x02, 0xe0, 0x26, 0x00, 0x02,
   0x01, 0x13, 0x1c, 0x04, 0x80, 0x10, 0x22, 0x04, 0x51, 0x10, 0x22, 0x04,
   0x00, 0xf4, 0x23, 0x04, 0x51, 0x02, 0x10, 0x04, 0x80, 0xaa, 0x08, 0x00,
   0x11, 0x00, 0x02, 0x02, 0x20, 0x00, 0x81, 0x00, 0x01, 0x00, 0x81, 0x00,
   0x1e, 0x00, 0x41, 0x00, 0x20, 0x2a, 0x7f, 0x00, 0x00, 0x00, 0x04, 0x00,
   0x20, 0x2a, 0x7f, 0x00, 0x00, 0x00, 0x41, 0x00, 0x20, 0x2a, 0x41, 0x00,
   0x00, 0x00, 0x41, 0x00, 0x20, 0x2a, 0x41, 0x00, 0x00, 0x00, 0x7f, 0x00,
   0x20, 0xaa, 0x04, 0x00, 0x00, 0x00, 0x04, 0x00, 0x20, 0x00, 0x04, 0x00,
   0x00, 0x00, 0x04, 0x00, 0xe0, 0xff, 0x07, 0x00, 0x00, 0x00, 0x00, 0x00,
   0x00, 0x00, 0x00, 0x00, 0x00, 0x00, 0x00, 0x00 };
